<mxfile host="app.diagrams.net" modified="2022-03-16T01:55:27.564Z" agent="5.0 (Windows)" etag="pLq1Yaz9DnOGFfI66QCK" version="17.1.3" type="github">
  <diagram id="C5RBs43oDa-KdzZeNtuy" name="Page-1">
    <mxGraphModel dx="1658" dy="1638" grid="1" gridSize="10" guides="1" tooltips="1" connect="1" arrows="1" fold="1" page="1" pageScale="1" pageWidth="827" pageHeight="1169" math="0" shadow="0">
      <root>
        <mxCell id="WIyWlLk6GJQsqaUBKTNV-0" />
        <mxCell id="WIyWlLk6GJQsqaUBKTNV-1" parent="WIyWlLk6GJQsqaUBKTNV-0" />
        <mxCell id="OofM7pTAUgfn_MkKT3Le-3" style="edgeStyle=orthogonalEdgeStyle;rounded=0;orthogonalLoop=1;jettySize=auto;html=1;entryX=0.5;entryY=0;entryDx=0;entryDy=0;fontSize=16;" edge="1" parent="WIyWlLk6GJQsqaUBKTNV-1" source="OofM7pTAUgfn_MkKT3Le-1" target="OofM7pTAUgfn_MkKT3Le-2">
          <mxGeometry relative="1" as="geometry" />
        </mxCell>
        <mxCell id="OofM7pTAUgfn_MkKT3Le-1" value="&lt;font style=&quot;font-size: 16px&quot;&gt;START&lt;/font&gt;" style="ellipse;whiteSpace=wrap;html=1;" vertex="1" parent="WIyWlLk6GJQsqaUBKTNV-1">
          <mxGeometry x="195" y="70" width="90" height="70" as="geometry" />
        </mxCell>
        <mxCell id="OofM7pTAUgfn_MkKT3Le-5" style="edgeStyle=orthogonalEdgeStyle;rounded=0;orthogonalLoop=1;jettySize=auto;html=1;entryX=0.5;entryY=0;entryDx=0;entryDy=0;fontSize=16;" edge="1" parent="WIyWlLk6GJQsqaUBKTNV-1" source="OofM7pTAUgfn_MkKT3Le-2" target="OofM7pTAUgfn_MkKT3Le-4">
          <mxGeometry relative="1" as="geometry" />
        </mxCell>
        <mxCell id="OofM7pTAUgfn_MkKT3Le-2" value="" style="rounded=0;whiteSpace=wrap;html=1;fontSize=16;" vertex="1" parent="WIyWlLk6GJQsqaUBKTNV-1">
          <mxGeometry x="180" y="210" width="120" height="60" as="geometry" />
        </mxCell>
        <mxCell id="OofM7pTAUgfn_MkKT3Le-7" style="edgeStyle=orthogonalEdgeStyle;rounded=0;orthogonalLoop=1;jettySize=auto;html=1;exitX=0.5;exitY=1;exitDx=0;exitDy=0;entryX=0.5;entryY=0;entryDx=0;entryDy=0;fontSize=16;" edge="1" parent="WIyWlLk6GJQsqaUBKTNV-1" source="OofM7pTAUgfn_MkKT3Le-4" target="OofM7pTAUgfn_MkKT3Le-6">
          <mxGeometry relative="1" as="geometry" />
        </mxCell>
        <mxCell id="OofM7pTAUgfn_MkKT3Le-4" value="" style="rounded=0;whiteSpace=wrap;html=1;fontSize=16;" vertex="1" parent="WIyWlLk6GJQsqaUBKTNV-1">
          <mxGeometry x="180" y="350" width="120" height="60" as="geometry" />
        </mxCell>
        <mxCell id="OofM7pTAUgfn_MkKT3Le-9" style="edgeStyle=orthogonalEdgeStyle;rounded=0;orthogonalLoop=1;jettySize=auto;html=1;exitX=1;exitY=0.5;exitDx=0;exitDy=0;entryX=0;entryY=0.5;entryDx=0;entryDy=0;fontSize=16;" edge="1" parent="WIyWlLk6GJQsqaUBKTNV-1" source="OofM7pTAUgfn_MkKT3Le-6" target="OofM7pTAUgfn_MkKT3Le-8">
          <mxGeometry relative="1" as="geometry" />
        </mxCell>
        <mxCell id="OofM7pTAUgfn_MkKT3Le-19" style="edgeStyle=orthogonalEdgeStyle;rounded=0;orthogonalLoop=1;jettySize=auto;html=1;exitX=0.5;exitY=1;exitDx=0;exitDy=0;fontSize=16;" edge="1" parent="WIyWlLk6GJQsqaUBKTNV-1" source="OofM7pTAUgfn_MkKT3Le-6">
          <mxGeometry relative="1" as="geometry">
            <mxPoint x="240.28571428571445" y="650.0000000000002" as="targetPoint" />
          </mxGeometry>
        </mxCell>
        <mxCell id="OofM7pTAUgfn_MkKT3Le-6" value="" style="rounded=0;whiteSpace=wrap;html=1;fontSize=16;" vertex="1" parent="WIyWlLk6GJQsqaUBKTNV-1">
          <mxGeometry x="180" y="490" width="120" height="60" as="geometry" />
        </mxCell>
        <mxCell id="OofM7pTAUgfn_MkKT3Le-20" style="edgeStyle=orthogonalEdgeStyle;rounded=0;orthogonalLoop=1;jettySize=auto;html=1;exitX=1;exitY=0.5;exitDx=0;exitDy=0;fontSize=16;" edge="1" parent="WIyWlLk6GJQsqaUBKTNV-1" source="OofM7pTAUgfn_MkKT3Le-8">
          <mxGeometry relative="1" as="geometry">
            <mxPoint x="240" y="660.0000000000002" as="targetPoint" />
          </mxGeometry>
        </mxCell>
        <mxCell id="OofM7pTAUgfn_MkKT3Le-8" value="inside Environment" style="swimlane;fontSize=16;" vertex="1" parent="WIyWlLk6GJQsqaUBKTNV-1">
          <mxGeometry x="370" y="420" width="415" height="200" as="geometry" />
        </mxCell>
        <mxCell id="OofM7pTAUgfn_MkKT3Le-15" style="edgeStyle=orthogonalEdgeStyle;rounded=0;orthogonalLoop=1;jettySize=auto;html=1;exitX=1;exitY=0.5;exitDx=0;exitDy=0;entryX=0;entryY=0.5;entryDx=0;entryDy=0;fontSize=16;" edge="1" parent="OofM7pTAUgfn_MkKT3Le-8" source="OofM7pTAUgfn_MkKT3Le-11" target="OofM7pTAUgfn_MkKT3Le-13">
          <mxGeometry relative="1" as="geometry" />
        </mxCell>
        <mxCell id="OofM7pTAUgfn_MkKT3Le-11" value="" style="rounded=1;whiteSpace=wrap;html=1;fontSize=16;" vertex="1" parent="OofM7pTAUgfn_MkKT3Le-8">
          <mxGeometry x="29" y="70" width="101" height="60" as="geometry" />
        </mxCell>
        <mxCell id="OofM7pTAUgfn_MkKT3Le-16" style="edgeStyle=orthogonalEdgeStyle;rounded=0;orthogonalLoop=1;jettySize=auto;html=1;exitX=1;exitY=0.5;exitDx=0;exitDy=0;entryX=0;entryY=0.5;entryDx=0;entryDy=0;fontSize=16;" edge="1" parent="OofM7pTAUgfn_MkKT3Le-8" source="OofM7pTAUgfn_MkKT3Le-13" target="OofM7pTAUgfn_MkKT3Le-14">
          <mxGeometry relative="1" as="geometry" />
        </mxCell>
        <mxCell id="OofM7pTAUgfn_MkKT3Le-13" value="" style="rounded=1;whiteSpace=wrap;html=1;fontSize=16;" vertex="1" parent="OofM7pTAUgfn_MkKT3Le-8">
          <mxGeometry x="157" y="70" width="101" height="60" as="geometry" />
        </mxCell>
        <mxCell id="OofM7pTAUgfn_MkKT3Le-17" style="edgeStyle=orthogonalEdgeStyle;rounded=0;orthogonalLoop=1;jettySize=auto;html=1;exitX=1;exitY=0.5;exitDx=0;exitDy=0;entryX=1;entryY=0.5;entryDx=0;entryDy=0;fontSize=16;" edge="1" parent="OofM7pTAUgfn_MkKT3Le-8" source="OofM7pTAUgfn_MkKT3Le-14" target="OofM7pTAUgfn_MkKT3Le-8">
          <mxGeometry relative="1" as="geometry" />
        </mxCell>
        <mxCell id="OofM7pTAUgfn_MkKT3Le-14" value="" style="rounded=1;whiteSpace=wrap;html=1;fontSize=16;" vertex="1" parent="OofM7pTAUgfn_MkKT3Le-8">
          <mxGeometry x="285" y="70" width="101" height="60" as="geometry" />
        </mxCell>
        <mxCell id="OofM7pTAUgfn_MkKT3Le-18" style="edgeStyle=orthogonalEdgeStyle;rounded=0;orthogonalLoop=1;jettySize=auto;html=1;exitX=0;exitY=0.5;exitDx=0;exitDy=0;entryX=0;entryY=0.5;entryDx=0;entryDy=0;fontSize=16;" edge="1" parent="OofM7pTAUgfn_MkKT3Le-8" source="OofM7pTAUgfn_MkKT3Le-8" target="OofM7pTAUgfn_MkKT3Le-11">
          <mxGeometry relative="1" as="geometry" />
        </mxCell>
      </root>
    </mxGraphModel>
  </diagram>
</mxfile>
